<svg xmlns="http://www.w3.org/2000/svg" xmlns:xlink="http://www.w3.org/1999/xlink" width="36px" height="35px" viewBox="0 0 36 35" version="1.1">
    <title>Drone</title>
    <g id="Page-1" stroke="none" stroke-width="1" fill="none" fill-rule="evenodd">
        <g id="7992" transform="translate(-222.000000, -542.000000)" fill="#EDC951">
            <g id="Drone" transform="translate(222.465000, 542.779380)">
                <path d="M5.848,9.72261967 C5.832,9.58861967 5.716,9.49261967 5.577,9.50761967 C5.357,9.53361967 5.179,9.55861967 5.042,9.58161967 C4.86,9.61161967 4.755,9.63461967 4.747,9.63661967 C4.616,9.66561967 4.533,9.79561967 4.561,9.92761967 C4.587,10.0416197 4.688,10.1196197 4.8,10.1196197 C4.817,10.1196197 4.835,10.1176197 4.853,10.1136197 C4.856,10.1136197 5.146,10.0496197 5.633,9.99361967 C5.641,9.99261967 5.647,9.98761967 5.656,9.98661967 C5.777,9.95961967 5.862,9.84861967 5.848,9.72261967" id="Fill-34" fill="#016eee"/>
                <path d="M27.991,21.2596197 C27.895,21.3426197 27.799,21.4216197 27.702,21.4966197 C27.596,21.5796197 27.577,21.7336197 27.66,21.8396197 C27.708,21.9016197 27.78,21.9346197 27.853,21.9346197 C27.901,21.9346197 27.949,21.9186197 27.991,21.8896197 C27.994,21.8866197 27.999,21.8856197 28.003,21.8826197 C28.108,21.8006197 28.213,21.7146197 28.317,21.6246197 C28.639,21.3476197 28.952,21.0346197 29.251,20.6916197 C29.34,20.5896197 29.33,20.4356197 29.228,20.3466197 C29.127,20.2576197 28.972,20.2676197 28.883,20.3696197 C28.699,20.5806197 28.51,20.7786197 28.317,20.9636197 C28.209,21.0666197 28.1,21.1656197 27.991,21.2596197" id="Fill-35" fill="#016eee"/>
                <path d="M14.748,12.7866197 C14.796,12.8356197 14.859,12.8596197 14.922,12.8596197 C14.984,12.8596197 15.046,12.8366197 15.094,12.7886197 C15.19,12.6946197 15.191,12.5396197 15.096,12.4436197 C14.932,12.2776197 14.758,12.1216197 14.581,11.9686197 C14.475,11.8756197 14.366,11.7866197 14.255,11.6986197 C14.099,11.5746197 13.943,11.4476197 13.779,11.3326197 C13.668,11.2556197 13.516,11.2826197 13.439,11.3926197 C13.362,11.5036197 13.389,11.6566197 13.499,11.7336197 C13.762,11.9176197 14.013,12.1196197 14.255,12.3316197 C14.367,12.4296197 14.475,12.5306197 14.581,12.6336197 C14.636,12.6856197 14.695,12.7336197 14.748,12.7866197" id="Fill-36" fill="#016eee"/>
                <path d="M16.623,15.4626197 C16.665,15.5496197 16.752,15.5996197 16.843,15.5996197 C16.879,15.5996197 16.915,15.5926197 16.95,15.5746197 C17.072,15.5156197 17.121,15.3686197 17.062,15.2476197 C16.889,14.8956197 16.697,14.5626197 16.495,14.2386197 C16.397,14.0796197 16.3,13.9186197 16.195,13.7676197 C16.188,13.7576197 16.178,13.7516197 16.17,13.7426197 C16.088,13.6566197 15.955,13.6366197 15.854,13.7056197 C15.743,13.7836197 15.716,13.9356197 15.793,14.0466197 C15.924,14.2356197 16.048,14.4336197 16.17,14.6366197 C16.284,14.8266197 16.391,15.0256197 16.495,15.2266197 C16.537,15.3056197 16.583,15.3816197 16.623,15.4626197" id="Fill-37" fill="#016eee"/>
                <path d="M20.173,21.2976197 C20.206,21.3136197 20.242,21.3246197 20.278,21.3246197 C20.341,21.3246197 20.405,21.3006197 20.453,21.2506197 C20.547,21.1546197 20.545,20.9996197 20.449,20.9056197 C20.356,20.8146197 20.264,20.7206197 20.173,20.6226197 C20.062,20.5056197 19.954,20.3816197 19.847,20.2556197 C19.686,20.0676197 19.529,19.8706197 19.376,19.6636197 C19.296,19.5566197 19.144,19.5326197 19.034,19.6136197 C18.926,19.6936197 18.902,19.8466197 18.983,19.9556197 C19.259,20.3286197 19.549,20.6746197 19.847,20.9896197 C19.932,21.0806197 20.019,21.1696197 20.107,21.2556197 C20.126,21.2746197 20.149,21.2866197 20.173,21.2976197" id="Fill-38" fill="#016eee"/>
                <path d="M18.269,18.6426197 C18.295,18.6426197 18.32,18.6306197 18.346,18.6216197 C18.36,18.6166197 18.375,18.6186197 18.389,18.6106197 C18.507,18.5446197 18.548,18.3946197 18.481,18.2776197 C18.435,18.1956197 18.391,18.1066197 18.346,18.0226197 C18.234,17.8186197 18.125,17.6096197 18.019,17.3926197 C17.924,17.1966197 17.828,16.9996197 17.737,16.7966197 C17.682,16.6726197 17.537,16.6186197 17.414,16.6726197 C17.291,16.7276197 17.236,16.8726197 17.29,16.9956197 C17.518,17.5066197 17.764,17.9936197 18.019,18.4496197 C18.032,18.4726197 18.043,18.4966197 18.056,18.5186197 C18.1,18.5976197 18.183,18.6426197 18.269,18.6426197" id="Fill-39" fill="#016eee"/>
                <path d="M8.928,10.0216197 C8.939,10.0236197 8.95,10.0246197 8.961,10.0246197 C9.081,10.0246197 9.186,9.93461967 9.202,9.81261967 C9.221,9.67861967 9.126,9.55461967 8.993,9.53661967 C8.773,9.50761967 8.549,9.48861967 8.324,9.46961967 C8.216,9.46061967 8.107,9.45161967 7.998,9.44561967 C7.761,9.43161967 7.523,9.41961967 7.285,9.41761967 C7.284,9.41761967 7.283,9.41761967 7.283,9.41761967 C7.148,9.41761967 7.039,9.52661967 7.03799311,9.66061967 C7.037,9.79561967 7.145,9.90661967 7.281,9.90761967 C7.521,9.90861967 7.76,9.92061967 7.998,9.93461967 C8.108,9.94161967 8.215,9.95061967 8.324,9.96061967 C8.527,9.97761967 8.73,9.99561967 8.928,10.0216197" id="Fill-40" fill="#016eee"/>
                <path d="M29.952,19.3756197 C29.994,19.4016197 30.04,19.4146197 30.085,19.4146197 C30.113,19.4146197 30.139,19.4036197 30.166,19.3946197 C30.215,19.3766197 30.261,19.3496197 30.291,19.3026197 C30.438,19.0736197 30.582,18.8346197 30.72,18.5926197 C30.786,18.4746197 30.745,18.3266197 30.627,18.2596197 C30.51,18.1926197 30.36,18.2346197 30.294,18.3516197 C30.253,18.4236197 30.208,18.4916197 30.166,18.5626197 C30.072,18.7226197 29.978,18.8846197 29.879,19.0366197 C29.806,19.1516197 29.839,19.3026197 29.952,19.3756197" id="Fill-41" fill="#016eee"/>
                <path d="M12.99,1.69861967 L14.255,2.35761967 L14.581,2.52761967 L16.17,3.35461967 L16.495,3.52461967 L18.019,4.31761967 L18.346,4.48761967 L21.439,6.09861967 L21.439,21.9356197 C21.419,21.9516197 21.399,21.9696197 21.385,21.9926197 C21.32,22.0966197 21.348,22.2286197 21.439,22.3056197 L21.439,32.1096197 L19.847,31.2796197 L18.345,30.4976197 L18.019,30.3286197 L16.495,29.5346197 L16.17,29.3656197 L14.581,28.5386197 L14.255,28.3686197 L12.99,27.7086197 L12.99,1.69861967 Z M9.428,27.3056197 L8.324,27.8806197 L7.998,28.0506197 L6.41,28.8776197 L6.084,29.0476197 L4.55,29.8456197 L4.349,29.9506197 L2.72,30.7996197 L2.542,30.8916197 L0.978,31.7056197 L0.978,5.69561967 L4.265,3.98361967 L4.403,3.91161967 L9.428,1.29561967 L9.428,27.3056197 Z M10.171,0.0716196676 C10.024,-0.0183803324 9.843,-0.0233803324 9.691,0.0556196676 L0.264,4.96461967 C0.102,5.04861967 0,5.21561967 0,5.39861967 L0,32.5126197 C0,32.6826197 0.089,32.8416197 0.236,32.9296197 C0.313,32.9776197 0.401,33.0016197 0.49,33.0016197 C0.567,33.0016197 0.644,32.9826197 0.715,32.9466197 L10.143,28.0366197 C10.305,27.9526197 10.406,27.7856197 10.406,27.6036197 L10.406,10.2516197 C10.437,10.2986197 10.482,10.3356197 10.54,10.3526197 C11.051,10.4956197 11.544,10.6786197 12.011,10.8906197 L12.011,28.0056197 C12.011,28.1886197 12.113,28.3556197 12.275,28.4396197 L21.702,33.3486197 C21.773,33.3866197 21.85,33.4046197 21.928,33.4046197 C22.016,33.4046197 22.104,33.3806197 22.181,33.3336197 C22.328,33.2446197 22.417,33.0866197 22.417,32.9146197 L22.417,22.8126197 C22.63,22.8986197 22.845,22.9756197 23.061,23.0336197 C23.082,23.0396197 23.104,23.0426197 23.125,23.0426197 C23.233,23.0426197 23.331,22.9706197 23.361,22.8616197 C23.396,22.7316197 23.319,22.5976197 23.189,22.5616197 C22.93,22.4916197 22.672,22.3976197 22.417,22.2836197 L22.417,5.80161967 C22.417,5.61861967 22.315,5.45161967 22.154,5.36661967 L12.726,0.457619668 C12.575,0.379619668 12.392,0.385619668 12.246,0.473619668 C12.1,0.562619668 12.011,0.721619668 12.011,0.892619668 L12.011,10.3616197 C11.581,10.1766197 11.136,10.0116197 10.673,9.88161967 C10.567,9.85161967 10.463,9.89761967 10.406,9.98261967 L10.406,0.489619668 C10.406,0.318619668 10.317,0.159619668 10.171,0.0716196676 L10.171,0.0716196676 Z" id="Fill-42" fill="#016eee"/>
                <path d="M33.347,27.3056197 L32.08,27.9656197 L31.754,28.1356197 L30.166,28.9626197 L29.84,29.1316197 L28.317,29.9256197 L27.991,30.0946197 L26.49,30.8766197 L26.163,31.0466197 L24.897,31.7056197 L24.897,23.1896197 C25.323,23.1486197 25.746,23.0546197 26.163,22.9076197 C26.273,22.8686197 26.382,22.8286197 26.49,22.7826197 C26.496,22.7806197 26.503,22.7776197 26.51,22.7746197 C26.634,22.7216197 26.692,22.5776197 26.639,22.4536197 C26.61,22.3866197 26.554,22.3416197 26.49,22.3206197 C26.435,22.3026197 26.375,22.3016197 26.317,22.3246197 C26.266,22.3466197 26.215,22.3646197 26.163,22.3846197 C25.747,22.5476197 25.323,22.6526197 24.897,22.6976197 L24.897,5.69561967 L26.163,5.03561967 L26.42,4.90161967 L27.991,4.08461967 L28.317,3.91461967 L29.84,3.12061967 L30.166,2.95061967 L31.754,2.12461967 L32.08,1.95461967 L33.347,1.29561967 L33.347,27.3056197 Z M23.919,32.5126197 C23.919,32.6826197 24.008,32.8416197 24.154,32.9296197 C24.232,32.9776197 24.32,33.0016197 24.408,33.0016197 C24.485,33.0016197 24.563,32.9826197 24.634,32.9466197 L30.019,30.1416197 L30.126,30.0866197 L31.79,29.2196197 L32.08,29.0686197 L34.061,28.0366197 C34.223,27.9526197 34.325,27.7856197 34.325,27.6036197 L34.325,0.489619668 C34.325,0.318619668 34.236,0.159619668 34.089,0.0716196676 C33.943,-0.0183803324 33.761,-0.0233803324 33.61,0.0556196676 L24.182,4.96461967 C24.02,5.04861967 23.919,5.21561967 23.919,5.39861967 L23.919,32.5126197 Z" id="Fill-43" fill="#016eee"/>
            </g>
        </g>
    </g>
</svg>