<svg xmlns="http://www.w3.org/2000/svg" xmlns:xlink="http://www.w3.org/1999/xlink" width="23px" height="39px" viewBox="0 0 23 39" version="1.1">
    <title>Maping</title>
    <g id="Page-1" stroke="none" stroke-width="1" fill="none" fill-rule="evenodd">
        <g id="7992" transform="translate(-680.000000, -734.000000)" fill="#FCBA30">
            <g id="Maping" transform="translate(680.909000, 734.188000)">
                <path d="M1.702,26.713 C2.265,26.713 2.723,27.171 2.723,27.735 C2.723,28.297 2.265,28.755 1.702,28.755 C1.138,28.755 0.68,28.297 0.68,27.735 C0.68,27.171 1.138,26.713 1.702,26.713 Z M1.073,5.987 C1.073,4.705 2.116,3.661 3.399,3.661 C4.681,3.661 5.724,4.705 5.724,5.987 C5.724,7.269 4.681,8.312 3.399,8.312 C2.116,8.312 1.073,7.269 1.073,5.987 Z M2.226,0.453 L2.718,0.453 L2.718,3.061 C2.675,3.071 2.633,3.083 2.591,3.094 L2.226,3.094 L2.226,0.453 Z M3.172,0.453 L3.485,0.453 L3.485,2.985 C3.456,2.984 3.427,2.981 3.399,2.981 C3.322,2.981 3.247,2.986 3.172,2.992 L3.172,0.453 Z M3.938,0.453 L4.505,0.453 L4.505,3.094 L4.206,3.094 C4.118,3.069 4.029,3.048 3.938,3.032 L3.938,0.453 Z M13.473,14.608 C13.273,14.887 13.154,15.228 13.154,15.596 C13.154,16.535 13.918,17.298 14.856,17.298 C15.224,17.298 15.565,17.179 15.844,16.979 L16.486,17.622 L15.892,19.594 L4.891,8.592 C5.426,8.286 5.857,7.818 6.12,7.255 L13.473,14.608 Z M14.856,14.575 C15.419,14.575 15.877,15.033 15.877,15.596 C15.877,16.159 15.419,16.618 14.856,16.618 C14.293,16.618 13.835,16.159 13.835,15.596 C13.835,15.033 14.293,14.575 14.856,14.575 Z M16.772,19.034 L17.608,19.869 L18.02,21 L16.605,19.585 L16.772,19.034 Z M3.966,31.19 L3.966,31.332 L2.043,30.271 L2.047,29.401 C2.82,29.241 3.403,28.554 3.403,27.735 C3.403,26.919 2.827,26.237 2.061,26.072 L2.135,8.71 C2.52,8.89 2.947,8.993 3.399,8.993 C3.592,8.993 3.782,8.973 3.966,8.937 L3.966,31.19 Z M3.739,33.685 L3.231,33.685 L3.231,31.704 L3.739,31.984 L3.739,33.685 Z M5.68434189e-14,27.735 C5.68434189e-14,28.558 0.588,29.247 1.366,29.403 L1.36,30.671 L2.777,31.454 L2.777,34.139 L4.193,34.139 L4.193,32.234 L4.646,32.485 L4.646,9.311 L16.216,20.88 L16.457,20.079 L19.148,22.77 L18,19.62 L16.921,18.541 L17.255,17.428 L16.307,16.48 C16.465,16.222 16.558,15.92 16.558,15.596 C16.558,14.658 15.795,13.894 14.856,13.894 C14.532,13.894 14.23,13.987 13.972,14.145 L6.354,6.526 C6.385,6.351 6.405,6.171 6.405,5.987 C6.405,4.9 5.824,3.95 4.959,3.421 L4.959,5.68434189e-14 L1.773,5.68434189e-14 L1.773,3.461 C0.944,3.998 0.392,4.928 0.392,5.987 C0.392,6.904 0.806,7.725 1.456,8.277 L1.38,26.064 C0.595,26.215 5.68434189e-14,26.906 5.68434189e-14,27.735 L5.68434189e-14,27.735 Z" id="Fill-625" fill="#016eee"/>
                <path d="M3.399,4.994 C3.946,4.994 4.391,5.439 4.391,5.987 C4.391,6.534 3.946,6.979 3.399,6.979 C2.851,6.979 2.406,6.534 2.406,5.987 C2.406,5.439 2.851,4.994 3.399,4.994 Z M3.399,7.66 C4.321,7.66 5.072,6.91 5.072,5.987 C5.072,5.064 4.321,4.313 3.399,4.313 C2.476,4.313 1.725,5.064 1.725,5.987 C1.725,6.91 2.476,7.66 3.399,7.66 L3.399,7.66 Z" id="Fill-626" fill="#016eee"/>
                <path d="M10.625,35.489 C8.53,36.084 6.316,36.135 4.552,35.626 C4.341,35.566 4.132,35.616 3.979,35.762 C3.819,35.916 3.75,36.157 3.804,36.374 C3.855,36.581 4.011,36.74 4.221,36.8 C5.204,37.083 6.226,37.22 7.259,37.22 C11.038,37.22 14.95,35.397 17.494,32.264 C19.147,30.229 20.404,27.642 21.337,24.353 C21.43,24.025 21.249,23.707 20.916,23.612 C20.58,23.516 20.256,23.694 20.163,24.024 C18.93,28.368 16.275,33.882 10.625,35.489" id="Fill-627" fill="#016eee"/>
            </g>
        </g>
    </g>
</svg>